<mxfile host="app.diagrams.net">
  <diagram name="UML Diagram">
    <mxGraphModel dx="1175" dy="622" grid="1" gridSize="10" guides="1" tooltips="1" connect="1" arrows="1" fold="1" page="1" pageScale="1" pageWidth="827" pageHeight="1169" math="0" shadow="0">
      <root>
        <mxCell id="0" />
        <mxCell id="1" parent="0" />
        <mxCell id="2" value="Aircraft" style="swimlane;childLayout=stackLayout;horizontal=0;startSize=20;fillColor=#ffffff;strokeColor=#000000;fontColor=#000000;" vertex="1" parent="1">
          <mxGeometry x="160" y="100" width="140" height="140" as="geometry" />
        </mxCell>
        <mxCell id="3" value="AircraftID: INT&#xa;Model: VARCHAR&#xa;Manufacturer: VARCHAR&#xa;Capacity: INT" style="text;html=1;strokeColor=none;fillColor=none;spacingLeft=4;" vertex="1" parent="2">
          <mxGeometry x="0" y="20" width="140" height="120" as="geometry" />
        </mxCell>
        <mxCell id="4" value="Airline" style="swimlane;childLayout=stackLayout;horizontal=0;startSize=20;fillColor=#ffffff;strokeColor=#000000;fontColor=#000000;" vertex="1" parent="1">
          <mxGeometry x="320" y="100" width="140" height="100" as="geometry" />
        </mxCell>
        <mxCell id="5" value="AirlineID: INT&#xa;Name: VARCHAR&#xa;Country: VARCHAR" style="text;html=1;strokeColor=none;fillColor=none;spacingLeft=4;" vertex="1" parent="4">
          <mxGeometry x="0" y="20" width="140" height="80" as="geometry" />
        </mxCell>
        <mxCell id="6" value="Airport" style="swimlane;childLayout=stackLayout;horizontal=0;startSize=20;fillColor=#ffffff;strokeColor=#000000;fontColor=#000000;" vertex="1" parent="1">
          <mxGeometry x="480" y="100" width="140" height="100" as="geometry" />
        </mxCell>
        <mxCell id="7" value="AirportID: INT&#xa;Name: VARCHAR&#xa;City: VARCHAR&#xa;Country: VARCHAR" style="text;html=1;strokeColor=none;fillColor=none;spacingLeft=4;" vertex="1" parent="6">
          <mxGeometry x="0" y="20" width="140" height="80" as="geometry" />
        </mxCell>
        <mxCell id="8" value="Flight" style="swimlane;childLayout=stackLayout;horizontal=0;startSize=20;fillColor=#ffffff;strokeColor=#000000;fontColor=#000000;" vertex="1" parent="1">
          <mxGeometry x="640" y="100" width="180" height="160" as="geometry" />
        </mxCell>
        <mxCell id="9" value="FlightID: INT&#xa;FlightNumber: VARCHAR&#xa;DepartureTime: DATETIME&#xa;ArrivalTime: DATETIME&#xa;Status: VARCHAR&#xa;AirlineID: INT&#xa;AircraftID: INT&#xa;DepartureAirportID: INT&#xa;ArrivalAirportID: INT" style="text;html=1;strokeColor=none;fillColor=none;spacingLeft=4;" vertex="1" parent="8">
          <mxGeometry x="0" y="20" width="180" height="140" as="geometry" />
        </mxCell>
        <mxCell id="10" style="edgeStyle=orthogonalEdgeStyle;rounded=0;orthogonalLoop=1;jettySize=auto;html=1;exitX=1;exitY=0.5;exitDx=0;exitDy=0;entryX=0;entryY=0.5;entryDx=0;entryDy=0;" edge="1" parent="1" source="8" target="2">
          <mxGeometry relative="1" as="geometry" />
        </mxCell>
        <mxCell id="11" style="edgeStyle=orthogonalEdgeStyle;rounded=0;orthogonalLoop=1;jettySize=auto;html=1;exitX=1;exitY=0.5;exitDx=0;exitDy=0;entryX=0;entryY=0.5;entryDx=0;entryDy=0;" edge="1" parent="1" source="8" target="4">
          <mxGeometry relative="1" as="geometry" />
        </mxCell>
        <mxCell id="12" style="edgeStyle=orthogonalEdgeStyle;rounded=0;orthogonalLoop=1;jettySize=auto;html=1;exitX=1;exitY=0.5;exitDx=0;exitDy=0;entryX=0;entryY=0.5;entryDx=0;entryDy=0;" edge="1" parent="1" source="8" target="6">
          <mxGeometry relative="1" as="geometry" />
        </mxCell>
      </root>
    </mxGraphModel>
  </diagram>
</mxfile>
